<svg xmlns="http://www.w3.org/2000/svg" viewBox="0 0 64 64" fill="none">
  <defs>
    <linearGradient id="coffeeGradient" x1="0%" y1="0%" x2="100%" y2="100%">
      <stop offset="0%" style="stop-color:#6F4E37"/>
      <stop offset="100%" style="stop-color:#A67B5B"/>
    </linearGradient>
  </defs>
  <!-- Coffee Cup -->
  <path d="M16 24 L16 44 C16 48.4183 19.5817 52 24 52 L40 52 C44.4183 52 48 48.4183 48 44 L48 24 L16 24 Z" fill="url(#coffeeGradient)"/>
  <!-- Cup Handle -->
  <path d="M48 28 C52.4183 28 56 31.5817 56 36 C56 40.4183 52.4183 44 48 44" stroke="url(#coffeeGradient)" stroke-width="4" fill="none" stroke-linecap="round"/>
  <!-- Coffee Liquid -->
  <ellipse cx="32" cy="24" rx="16" ry="4" fill="#5D4037"/>
  <!-- Steam -->
  <path d="M24 16 Q24 12 28 10" stroke="#A67B5B" stroke-width="2" fill="none" stroke-linecap="round" opacity="0.6"/>
  <path d="M32 14 Q32 8 36 6" stroke="#A67B5B" stroke-width="2" fill="none" stroke-linecap="round" opacity="0.8"/>
  <path d="M40 16 Q40 12 44 10" stroke="#A67B5B" stroke-width="2" fill="none" stroke-linecap="round" opacity="0.6"/>
</svg>
